<svg version="1" xmlns="http://www.w3.org/2000/svg" width="933.333" height="933.333" viewBox="0 0 700.000000 700.000000"><path d="M343.9 121.4c-6 1.6-13 5.8-16.5 9.8-2.9 3.6-7.1 12-7.7 15.6-.4 2.7-.7 3-3.7 3.5-9.2 1.8-27.8 6.9-30.5 8.6-.5.3-1.6.6-2.4.8-2.3.3-25.6 12-30.7 15.4-33 21.8-55.7 49.3-67.9 82.1-4 10.7-8 27.9-9.1 38.8-.4 4.1-.8 41.2-.9 82.5-.1 74.8-.1 75-2.4 84-2.7 10.3-5.7 16.7-9.9 21.3-2.8 3-4 3.5-11.3 4.7-8 1.2-15 9.3-15.5 17.9-.4 7.8 4.2 15.6 11 18.7 3.9 1.8 7.9 1.9 75.3 1.9h71.2l1 3.8c.6 2 1.1 4.2 1.1 4.8 0 2.2 4.4 11.9 7.6 16.9 10.4 16.2 27.2 26 46.2 26.9 28.4 1.3 53.3-17.5 60-45.4l1.7-7h71.3c77.4 0 74.8.2 80.6-5.6 7.9-7.9 7.7-20.2-.5-28.2-3.1-3-6.9-4.6-12.9-5.4-6-.9-11.3-6.7-15-16.6-4.7-12.5-4.9-15.3-5-93.2-.1-80.4-.1-79.1-2.5-93.5-6-35.7-27.5-72.1-56.4-95.5-2.4-1.9-4.8-4-5.5-4.6-3.5-3.2-21.5-14.2-30.3-18.4-15.3-7.4-40-15.5-48.4-15.9-1-.1-1.9-1.8-2.7-5.1-1-4.5-3.7-9.6-7.4-14.1-2.5-3-10.1-7.9-14-9-6.1-1.6-12.8-1.8-17.9-.5zm17.9 15.3c4 2.2 8.2 7.3 8.2 9.8 0 .6-6.8 1-18.5 1-10.2 0-18.5-.1-18.5-.3 0-.2.6-1.5 1.4-3 3.6-6.8 12.4-11.5 19.6-10.5 1.9.2 5.4 1.6 7.8 3zm13.2 24.7c.8.2 3.4.7 5.8 1 2.4.3 8.7 1.7 14 3 30.8 7.8 55 21.5 77.3 43.6 22.1 22 34.4 44.4 41 74.5 2.2 9.7 2.2 12 2.5 87.9.3 70.1.7 82.5 2.9 94.1.9 4.8 4.7 14.8 6.7 17.7 1.1 1.6 1.7 3.2 1.4 3.7-.3.4-77.4.8-175.5.8H176.2l3.3-6.6c3-6.2 5.5-14 7.1-22.1.3-1.9.7-37 .9-78 .3-83.1.5-87.8 4.5-104 15.4-61 68.9-106.1 137-115.5 9-1.2 42.5-1.3 46-.1zM553 503c1.1 1.1 2 3.1 2 4.5s-.9 3.4-2 4.5c-2 2-3.3 2-201.3 2-193.2 0-199.4-.1-201.1-1.9-2.5-2.8-2.7-5.7-.5-8.6l2-2.5h199.5c198.1 0 199.4 0 201.4 2zm-156.5 27.2c-1.1 5.5-7.2 17.1-11.2 21.4-17.8 18.7-45.7 19.7-64.6 2.4-5.8-5.3-12.3-16.6-13.4-23.3l-.6-3.7h90.5l-.7 3.2z"/><path d="M281.5 338.2c-3.1 1.8-5.3 4.9-7 9.7-2.9 8.4-1.2 18.5 4.1 24.6 2.2 2.6 3.2 3 7.6 3 4.5 0 5.3-.4 7.8-3.3 8-9.7 6.3-28.9-3.1-33.8-3.3-1.7-6.7-1.8-9.4-.2zM411.1 339.6c-11.3 10.2-6.7 36.4 6.5 36.4 7.1 0 13.6-10.3 12.8-20.5-.8-10.8-5.2-17.3-12.2-18.2-3.3-.4-4.4-.1-7.1 2.3zM307.9 398.1c-1.9 1.9-2.1 2.9-1.6 8.3 1.2 12.6 7.2 23.7 17.2 31.9 21.7 17.5 53.8 11.5 68-12.7 6-10.2 8-25 4-28.1-5.1-3.8-10.2-.5-10.9 7-.6 6.2-1.9 10.4-4.2 14.1-3.2 5.2-8.8 10.5-13.9 13.2-4.4 2.4-6.1 2.7-14.5 2.7-8 0-10.2-.4-14-2.3-5.2-2.7-11.2-8.2-14.2-13-2.2-3.6-4.8-12.3-4.8-16.5 0-5.9-7-8.7-11.1-4.6z"/></svg>